<?xml version="1.0" standalone="no"?>
<!DOCTYPE svg PUBLIC "-//W3C//DTD SVG 1.1//EN" "http://www.w3.org/Graphics/SVG/1.1/DTD/svg11.dtd">
<svg xmlns="http://www.w3.org/2000/svg" width="3341" height="1397" viewBox="0 0 3341 1397" fill="none">
<path d="M1826.6 984C1769.8 984 1721 972.8 1680.2 950.4C1639.4 927.2 1607.8 896 1585.4 856.8C1563.8 816.8 1553 771.2 1553 720C1553 671.2 1565.4 626.8 1590.2 586.8C1615 546.8 1648.2 514.8 1689.8 490.8C1731.4 466.8 1777.8 454.8 1829 454.8C1894.6 454.8 1949 474 1992.2 512.4C2035.4 550.8 2064.6 603.6 2079.8 670.8L1670.6 814.8L1644.2 748.8L1980.2 626.4L1956.2 642C1946.6 615.6 1930.6 592.8 1908.2 573.6C1885.8 553.6 1856.6 543.6 1820.6 543.6C1790.2 543.6 1763 551.2 1739 566.4C1715 580.8 1696.2 600.8 1682.6 626.4C1669 652 1662.2 681.2 1662.2 714C1662.2 748.4 1669.4 778.8 1683.8 805.2C1698.2 830.8 1717.8 851.2 1742.6 866.4C1768.2 880.8 1797 888 1829 888C1850.6 888 1871.4 884 1891.4 876C1912.2 868 1931.4 857.6 1949 844.8L2000.6 927.6C1975.8 944.4 1947.8 958 1916.6 968.4C1886.2 978.8 1856.2 984 1826.6 984ZM2403.66 986.4L2127.66 475.2H2259.66L2446.86 870L2378.46 867.6L2550.06 475.2H2674.86L2409.66 986.4H2403.66ZM2740.11 718.8C2740.11 669.2 2751.71 624.4 2774.91 584.4C2798.91 544.4 2831.71 512.8 2873.31 489.6C2914.91 466.4 2962.11 454.8 3014.91 454.8C3069.31 454.8 3116.91 466.4 3157.71 489.6C3198.51 512.8 3230.11 544.4 3252.51 584.4C3274.91 624.4 3286.11 669.2 3286.11 718.8C3286.11 768.4 3274.91 813.6 3252.51 854.4C3230.11 894.4 3198.11 926 3156.51 949.2C3115.71 972.4 3068.11 984 3013.71 984C2960.91 984 2913.71 973.2 2872.11 951.6C2831.31 929.2 2798.91 898.4 2774.91 859.2C2751.71 819.2 2740.11 772.4 2740.11 718.8ZM2851.71 720C2851.71 752 2858.91 781.2 2873.31 807.6C2887.71 833.2 2906.91 853.6 2930.91 868.8C2955.71 884 2982.91 891.6 3012.51 891.6C3043.71 891.6 3071.31 884 3095.31 868.8C3120.11 853.6 3139.31 833.2 3152.91 807.6C3166.51 781.2 3173.31 752 3173.31 720C3173.31 688 3166.51 659.2 3152.91 633.6C3139.31 607.2 3120.11 586.4 3095.31 571.2C3071.31 555.2 3043.71 547.2 3012.51 547.2C2982.11 547.2 2954.51 555.2 2929.71 571.2C2905.71 587.2 2886.51 608.4 2872.11 634.8C2858.51 660.4 2851.71 688.8 2851.71 720Z" fill="#494949"/>
<g clip-path="url(#clip0_2_27)">
<mask id="mask0_2_27" style="mask-type:luminance" maskUnits="userSpaceOnUse" x="0" y="348" width="404" height="594">
<path d="M403.836 348.324H0V941.215H403.836V348.324Z" fill="white"/>
</mask>
<g mask="url(#mask0_2_27)">
<path d="M403.836 742.967C403.836 852.455 316.31 941.215 203.77 941.215C91.231 941.215 0 852.455 0 742.967C0 633.478 91.231 544.719 203.77 544.719C316.31 544.719 403.836 633.478 403.836 742.967Z" fill="#0059FF"/>
<path d="M11.1149 741.114C4.97633 741.114 -0.0167776 736.134 0.161683 729.997C3.07379 629.854 45.2453 534.406 118.281 463.37C191.391 392.257 289.648 351.23 392.721 348.472C398.857 348.308 403.836 353.301 403.836 359.44V729.997C403.836 736.138 398.86 741.114 392.721 741.114H11.1149Z" fill="#0059FF"/>
</g>
<mask id="mask1_2_27" style="mask-type:luminance" maskUnits="userSpaceOnUse" x="322" y="989" width="594" height="406">
<path d="M322.991 989.388L322.328 1393.29L915.114 1394.27L915.777 990.362L322.991 989.388Z" fill="white"/>
</mask>
<g mask="url(#mask1_2_27)">
<path d="M717.565 990.036C827.034 990.214 915.633 1077.9 915.448 1190.46C915.263 1303.02 826.371 1394.12 716.902 1393.94C607.432 1393.76 518.837 1302.37 519.022 1189.81C519.207 1077.25 608.096 989.854 717.565 990.036Z" fill="#0059FF"/>
<path d="M715.068 1382.82C715.057 1388.96 710.07 1393.95 703.934 1393.76C603.813 1390.68 508.452 1348.35 437.547 1275.18C366.569 1201.94 325.709 1103.6 323.121 1000.5C322.967 994.368 327.967 989.395 334.106 989.406L704.598 990.014C710.737 990.025 715.705 995.009 715.694 1001.15L715.068 1382.82Z" fill="#0059FF"/>
</g>
<mask id="mask2_2_27" style="mask-type:luminance" maskUnits="userSpaceOnUse" x="952" y="437" width="404" height="594">
<path d="M952.164 1030.15H1356V437.257H952.164V1030.15Z" fill="white"/>
</mask>
<g mask="url(#mask2_2_27)">
<path d="M952.164 635.505C952.164 526.017 1039.69 437.257 1152.23 437.257C1264.77 437.257 1356 526.017 1356 635.505C1356 744.994 1264.77 833.753 1152.23 833.753C1039.69 833.753 952.164 744.994 952.164 635.505Z" fill="#0059FF"/>
<path d="M1344.89 637.358C1351.02 637.358 1356.02 642.338 1355.84 648.475C1352.92 748.618 1310.76 844.066 1237.72 915.102C1164.61 986.215 1066.35 1027.24 963.279 1030C957.143 1030.16 952.164 1025.17 952.164 1019.03V648.475C952.164 642.335 957.14 637.358 963.279 637.358H1344.89Z" fill="#0059FF"/>
</g>
<mask id="mask3_2_27" style="mask-type:luminance" maskUnits="userSpaceOnUse" x="448" y="0" width="594" height="404">
<path d="M1041.08 403.907V0L448.295 0V403.907L1041.08 403.907Z" fill="white"/>
</mask>
<g mask="url(#mask3_2_27)">
<path d="M646.508 403.907C537.039 403.907 448.295 316.366 448.295 203.806C448.295 91.2471 537.039 0 646.508 0C755.977 0 844.721 91.2471 844.721 203.806C844.721 316.366 755.977 403.907 646.508 403.907Z" fill="#0059FF"/>
<path d="M648.361 11.1167C648.361 4.97712 653.34 -0.0168693 659.475 0.161623C759.601 3.07425 855.032 45.2532 926.055 118.302C997.156 191.425 1038.18 289.699 1040.93 392.79C1041.1 398.927 1036.11 403.907 1029.97 403.907H659.475C653.336 403.907 648.361 398.931 648.361 392.79V11.1167Z" fill="#0059FF"/>
</g>
</g>
<defs>
<clipPath id="clip0_2_27">
<rect width="1356" height="1397" fill="white"/>
</clipPath>
</defs>
</svg>