<svg xmlns="http://www.w3.org/2000/svg" width="47" height="75" viewBox="0 0 47 75" fill="none">
<g clip-path="url(#clip0_4063_176488)">
<path d="M21.2363 31.7493C20.1916 30.6991 17.9478 29.7185 16.6086 29.1482C13.0115 27.6181 9.29529 26.248 6.09091 23.8764C2.88652 21.5048 0.285145 17.923 -0.00233788 13.8126C-0.121538 12.0878 0.250076 10.1961 1.47714 9.06944C3.1179 7.56718 5.59305 7.9288 7.68957 8.47128C10.7812 9.18201 13.7459 10.3545 16.4824 11.9487C19.3033 13.6085 21.5427 16.0871 22.8981 19.0497C24.0831 21.8316 24.3005 24.8918 24.4267 27.9172C24.6581 33.6967 24.9316 40.436 24.8684 46.0625C24.5108 46.1529 24.3356 46.2433 23.978 46.3337C23.7536 46.3337 23.8027 39.2188 23.7536 38.5929C23.4801 34.6008 22.9963 33.5089 21.2363 31.7493Z" fill="#34A853"/>
<path d="M27.7995 32.5842C29.5104 31.2767 31.607 30.6855 33.6474 30.1221L39.6705 28.46C40.5389 28.1088 41.5036 28.0694 42.3981 28.3487C42.8353 28.5876 43.2015 28.9363 43.46 29.3599C43.7184 29.7835 43.86 30.267 43.8706 30.762C43.8905 31.7733 43.5967 32.7662 43.0292 33.6066C41.718 35.693 39.5233 36.8823 37.2725 37.71C35.0217 38.5376 32.7148 39.1009 30.6463 40.2693C29.7667 40.8694 28.8268 41.3775 27.8416 41.7855C27.3511 41.9831 26.8143 42.0389 26.2932 41.9466C25.7721 41.8543 25.2879 41.6176 24.8967 41.2639C23.866 40.165 24.9317 38.4472 25.1 37.2161C25.2194 36.3055 25.5195 35.4274 25.9828 34.6324C26.4461 33.8374 27.0636 33.1413 27.7995 32.5842V32.5842Z" fill="#A8DAB5"/>
<path d="M35.0974 16.852C37.0818 16.1148 39.3045 15.461 41.0995 14.2925C43.736 12.5399 44.6054 8.52003 43.3012 5.50856C42.6433 4.05792 41.6069 2.80772 40.2991 1.88709C38.9913 0.966459 37.4594 0.408754 35.8617 0.271512C31.4022 -0.124917 26.8516 2.77528 25.0846 7.1499C23.8085 10.3074 23.9347 13.8753 24.0819 17.304C24.4395 25.7333 24.6078 34.1627 24.9654 42.592C26.3117 43.0023 24.2151 43.0023 25.5614 42.592C25.5614 37.0281 25.4703 31.5059 25.2319 25.9907C25.0496 21.7204 31.1358 18.3542 35.0974 16.852Z" fill="#CEEAD6"/>
<path d="M46.8755 39.9146L46.7353 42.9191V43.2946L45.7747 64.0828C45.7747 66.7408 44.7102 69.2899 42.8153 71.1694C40.9204 73.0489 38.3504 74.1048 35.6707 74.1048H18.1272C15.4475 74.1048 12.8775 73.0489 10.9826 71.1694C9.08776 69.2899 8.02324 66.7408 8.02324 64.0828L6.25626 43.2946L6.22121 42.9191L5.96875 39.9146H46.8755Z" fill="#FFE086" stroke="#FFE086" stroke-width="0.44" stroke-linecap="round" stroke-linejoin="round"/>
<path d="M46.7033 42.9258L46.6823 43.3013H6.27334L6.23828 42.9258H46.7033Z" fill="#FBBC04"/>
</g>
<defs>
<clipPath id="clip0_4063_176488">
<rect width="47" height="74" fill="white" transform="translate(0 0.264648)"/>
</clipPath>
</defs>
</svg>